inDegrees=no
num_controls=7
num_derivatives=13
num_iterations=132
num_multipliers=7
num_parameters=0
num_slacks=7
num_states=26
objective=5.935523
objective_accelerations=0.733165
objective_balance=0.129203
objective_effort=0.479674
objective_height=4.516145
objective_ligament=0.077336
solver_duration=1515.660994
status=Solve_Succeeded
success=true
DataType=double
version=3
OpenSimVersion=4.4-2022-07-23-0e9fedc
endheader
time	/jointset/ground_pelvis/pelvis_tilt/value	/jointset/ground_pelvis/pelvis_tx/value	/jointset/ground_pelvis/pelvis_ty/value	/jointset/hip_l/hip_flexion_l/value	/jointset/hip_l/hip_adduction_l/value	/jointset/hip_l/hip_rotation_l/value	/jointset/back/lumbar_extension/value	/jointset/patellofemoral_l/patellar_flexion_l/value	/jointset/knee_l/knee_flexion_l/value	/jointset/knee_l/knee_adduction_l/value	/jointset/knee_l/knee_rotation_l/value	/jointset/ankle_l/ankle_angle_l/value	/jointset/subtalar_l/subtalar_angle_l/value	/jointset/ground_pelvis/pelvis_tilt/speed	/jointset/ground_pelvis/pelvis_tx/speed	/jointset/ground_pelvis/pelvis_ty/speed	/jointset/hip_l/hip_flexion_l/speed	/jointset/hip_l/hip_adduction_l/speed	/jointset/hip_l/hip_rotation_l/speed	/jointset/back/lumbar_extension/speed	/jointset/patellofemoral_l/patellar_flexion_l/speed	/jointset/knee_l/knee_flexion_l/speed	/jointset/knee_l/knee_adduction_l/speed	/jointset/knee_l/knee_rotation_l/speed	/jointset/ankle_l/ankle_angle_l/speed	/jointset/subtalar_l/subtalar_angle_l/speed	/forceset/tau_hip_flexion_l	/forceset/tau_hip_adduction_l	/forceset/tau_hip_rotation_l	/forceset/tau_knee_flexion_l	/forceset/tau_ankle_angle_l	/forceset/tau_subtalar_angle_l	/forceset/tau_lumbar_extension	lambda_cid13_p0	lambda_cid13_p1	lambda_cid13_p2	lambda_cid13_p3	lambda_cid13_p4	lambda_cid13_p5	lambda_cid14_p0	/jointset/ground_pelvis/pelvis_tilt/accel	/jointset/ground_pelvis/pelvis_tx/accel	/jointset/ground_pelvis/pelvis_ty/accel	/jointset/hip_l/hip_flexion_l/accel	/jointset/hip_l/hip_adduction_l/accel	/jointset/hip_l/hip_rotation_l/accel	/jointset/back/lumbar_extension/accel	/jointset/patellofemoral_l/patellar_flexion_l/accel	/jointset/knee_l/knee_flexion_l/accel	/jointset/knee_l/knee_adduction_l/accel	/jointset/knee_l/knee_rotation_l/accel	/jointset/ankle_l/ankle_angle_l/accel	/jointset/subtalar_l/subtalar_angle_l/accel	gamma_cid13_p0	gamma_cid13_p1	gamma_cid13_p2	gamma_cid13_p3	gamma_cid13_p4	gamma_cid13_p5	gamma_cid14_p0
1	-0.725024743195256	-0.1239175390209573	0.5636686111055602	2.094041382974812	-0.2867668200574904	0.1730459590662853	-0.4363097427746019	1.294152066113598	1.294152066113538	-0.1744762940186069	0.1745202873828224	0.1271713871238609	-0.01285988363888579	-0.01252690799954551	0.0005918138166156497	-0.003802604150067214	0.01933197969085779	0.0009042759622650281	0.003610427152032537	5.757479042989379e-05	0.008948896705320397	0.008948896705323396	-0.000150608323467059	-4.290108457682229e-05	0.002753506101004927	0.001511136533425916	-0.4885078802542543	0.005646221330879084	-0.01396448008004073	-0.230430251964064	0.08271563913173563	0.02281226593368577	0.3803717570818132	-20.40284206229167	-6.055547368224952	0.2438247093801234	13.84417730216458	-741.3247190612202	-36.72302693812964	-0.03975277500999462	2.101082865301614	0.1911770210947316	1.881242546350147	-6.886749279979409	-0.5047057808637975	-1.898978313024583	-0.02632646320544873	-5.04931230657157	-5.049312306571629	-0.04847219478155381	0.01072761472174778	-0.5533488734989477	-0.6242309987089789	6.828077394294616e-10	2.839549816005453e-09	-7.755758663589046e-09	-2.638093944406435e-10	1.354509737843011e-09	-4.321537122639437e-09	1.632188441458198e-09
1.01	-0.7250456528656056	-0.1239021001904528	0.5637245362723247	2.093891240152933	-0.2867820557821536	0.1729860104263073	-0.43630962713558	1.293989334537413	1.29398933453742	-0.1744778032961319	0.1745195452381911	0.1271715136651159	-0.01287484835665605	0.008349816875137155	0.002499667672211849	0.01498563622308725	-0.04936136061420895	-0.00395599023369299	-0.01560608596442491	-3.168183284751063e-05	-0.04148882811507127	-0.04148882811507211	-0.0001530972760084972	-9.121116725636691e-05	-0.002727860688637162	-0.004509036585992303	-0.4884499316964859	0.005644644432909483	-0.01397711364938327	-0.2303838721087472	0.08279460280265324	0.02286318214402008	0.3803611446571334	-20.36805924613502	-6.086232355515734	0.2515515912214341	13.75338092996202	-741.2447609586541	-36.7715739839773	-0.0397633981331962	2.081693240668347	0.1911473473763468	1.877313250778722	-6.860749538167097	-0.4773747480520336	-1.933883164675869	0.0001895132345258786	-5.040043619818792	-5.040043619819055	0.02358164839229432	-0.0104692176194631	-0.54547995226233	-0.591655201585119	-3.86916476084349e-09	-1.022952803924226e-08	2.434633144702784e-08	2.330150026794397e-09	-6.619664625700938e-09	2.94975095151899e-08	-6.793326954744001e-09
1.02	-0.7248576500988011	-0.1238674712654751	0.5639682835364159	2.093054139301552	-0.2868460317105954	0.1727337175844312	-0.4363103211077345	1.293322417503015	1.293322417503061	-0.1744793936844222	0.1745187482131135	0.1271168366643606	-0.01295016375222578	0.02925557943450932	0.00442983271124547	0.03376181531538056	-0.1180596262151349	-0.00884376479326527	-0.03485841322966832	-0.0001043474511732773	-0.09188819493730779	-0.09188819493730831	-0.0001668304732429314	-5.387716420535742e-05	-0.00820720230090349	-0.01055899902648724	-0.488391983138564	0.005643067534977425	-0.01398974721858849	-0.2303374922534809	0.08287356647354135	0.02291409835439032	0.3803505322326337	-20.33947788501599	-6.114485613020729	0.2573534939186278	13.69002377485915	-741.2456768120721	-36.77602892489786	-0.0397550759012814	2.106890402239452	0.1956392577822605	1.878830290177913	-6.88773433915124	-0.5102074535867682	-1.906141142781985	-0.02300826221419132	-5.041640706940477	-5.041640706939704	-0.05072104372011604	0.02785643186812614	-0.5529438380237344	-0.630188862924443	-7.407128563678729e-09	-1.842615588292779e-08	5.752323403725765e-08	5.598511776998849e-09	-1.383471079234049e-08	6.02586727119233e-08	-1.407501926076544e-08
1.03	-0.724460473267698	-0.1238134097036016	0.5643996761729829	2.091530170030269	-0.2869588529597779	0.1722888832416084	-0.4363116648406475	1.292151727683564	1.292151727683542	-0.1744811289553227	0.1745185501734186	0.1270073208210418	-0.01308594394553473	0.0501815102580546	0.006388088179129951	0.05250914737039541	-0.1867211138095176	-0.01370754108640596	-0.05409885215582302	-0.0001619964791635839	-0.1422406712078104	-0.1422406712078124	-0.0001759915812826125	7.742037433723826e-06	-0.01370105647879233	-0.01658301664826054	-0.487918870895331	0.005705942711068903	-0.01403226793288204	-0.2302907864165423	0.08313476442799629	0.02305930796856442	0.38008921239875	-20.23006318228888	-6.202149888028998	0.2775456481909375	13.54386521254648	-740.9480318120488	-36.88201564918209	-0.03978018098467102	2.085701696979795	0.1967617633941827	1.871545716966363	-6.853390559118737	-0.4725314522721866	-1.931572186780674	0.003217177828508255	-5.030682112181382	-5.03068211218207	0.02461166951796757	-0.005687044721905124	-0.5483686522827658	-0.5864113674664854	-1.093474533898909e-08	-2.657306484894429e-08	9.071110410176921e-08	8.873755183621363e-09	-2.104201075288918e-08	9.098863301640061e-08	-2.134503990260136e-08
1.04	-0.7238539856734492	-0.1237395969726287	0.5650183143408601	2.089319978965111	-0.2871199257189115	0.1716519291256235	-0.4363135129836886	1.290477786896393	1.290477786896326	-0.1744828307745952	0.1745187679837657	0.1268427139470207	-0.01328154494619401	0.07111773206430588	0.008380066531121002	0.07121092157748109	-0.2553039849853854	-0.01849406678330483	-0.07328236785191732	-0.0002052294703511266	-0.1925383884813665	-0.192538388481373	-0.0001601401347763244	2.929287772841437e-05	-0.01922540844113401	-0.02252316049654694	-0.4874457586521962	0.005768817887064277	-0.01407478864732883	-0.2302440805795924	0.08339596238244006	0.0232045175826278	0.3798278925647602	-20.1269175335711	-6.287391214652183	0.2958377716847091	13.42517399056928	-740.7320414446342	-36.94439651218055	-0.0397861853863634	2.108948598780558	0.2023838346036284	1.869718720592085	-6.87201105544823	-0.494757334338469	-1.894756496769995	-0.02012505485271485	-5.030688907551119	-5.030688907550968	-0.04571853281092439	0.01984275959938727	-0.5590433949142077	-0.6134141082271151	-1.477384707623415e-08	-3.767499110625965e-08	1.223784047826164e-07	1.086071516024719e-08	-2.821906163710437e-08	1.2182717176726e-07	-2.91333602495895e-08
1.05	-0.7230380555825905	-0.1236456673190484	0.5658236666080234	2.086424495221747	-0.287328470884877	0.170823469999466	-0.436315747899118	1.28830125918797	1.288301259188045	-0.1744843063047632	0.1745190969163249	0.1266226389261868	-0.01353613327102465	0.09207194744450038	0.01041418312812513	0.08984441725123821	-0.3237648645346409	-0.02320018755186075	-0.09239674880641462	-0.0002410583984303155	-0.2427468484512381	-0.2427468484512571	-0.0001336147363648215	3.791465253693177e-05	-0.02480164510940249	-0.02837959271105967	-0.4865533558913769	0.005891497728036325	-0.01414625028012946	-0.2301382276331456	0.08379026666440077	0.02343696533466165	0.3793133351993422	-19.95522430927008	-6.426619714864393	0.3274171806256396	13.22684414105497	-740.1618988021891	-37.09062144831781	-0.03982012108936892	2.089204896398031	0.2051759949402863	1.857890648679934	-6.828944644765564	-0.4563400224601117	-1.917902742472579	0.004792473707699921	-5.012871362514681	-5.012871362516989	0.02702407160519812	-0.008453415257965731	-0.5587194949028115	-0.5695315954283483	-1.862268271853966e-08	-4.886926165392809e-08	1.53998187670224e-07	1.280741627968562e-08	-3.539516723768413e-08	1.526691035945689e-07	-3.693787746236364e-08
1.06	-0.7220124739601482	-0.1235311464149605	0.5668148989635069	2.082845239034866	-0.2875836373733955	0.1698042422943235	-0.4363183202468026	1.285623257515686	1.285623257515897	-0.1744854793818366	0.1745195470062439	0.1263464404002501	-0.01384884068147347	0.1130480383750269	0.0124983166326446	0.1083869392415785	-0.3920584736879728	-0.02781833129429602	-0.1114360836682196	-0.0002727159067879124	-0.2928331812534739	-0.2928331812535082	-9.964952042823062e-05	5.352436015460314e-05	-0.03045010946244445	-0.03414697762016176	-0.4856609531306581	0.006014177569157121	-0.01421771191246577	-0.2300323746866613	0.08418457094644198	0.02366941308687963	0.3787987778337943	-19.78993732703391	-6.563410478726189	0.3571047353802506	13.05632076900195	-739.6749347570867	-37.19443479613884	-0.03986165539430823	2.113323708846944	0.2123872161067177	1.851523983908729	-6.838556976263455	-0.4771619291143377	-1.879747278231465	-0.01929077090773825	-5.006263474023952	-5.00626347402439	-0.04423056930597193	0.02124034616118572	-0.5734889318688576	-0.5956046471449751	-2.161382166709538e-08	-5.68660350951664e-08	1.823728769422956e-07	1.453531629450802e-08	-4.13721321016062e-08	1.784280928901534e-07	-4.340620856213412e-08
1.07	-0.7207770399749904	-0.1233955047345039	0.567991020749826	2.078584075682858	-0.2878844535899423	0.1685951397360899	-0.4363211427751424	1.282445132835717	1.282445132835885	-0.1744862967698552	0.1745201308821473	0.1260133620648819	-0.01421867847802726	0.1340396450264011	0.01464114006421159	0.1268141585322399	-0.4601262033150452	-0.03231740666953608	-0.1303615182660589	-0.0002853808422416611	-0.3427580777746796	-0.3427580777747168	-5.570883576218907e-05	5.490621075377439e-05	-0.03617967816251518	-0.03979151497328276	-0.4843578513300136	0.006210265982267486	-0.0143161474485925	-0.229867854699466	0.0847372486773937	0.02397753476446818	0.3780434333963166	-19.54810250267931	-6.750523991579814	0.3994464005299381	12.78869056982394	-738.8373287483994	-37.37544756928283	-0.04118422823663368	2.092208983362593	0.2169012720189286	1.834822437422422	-6.783686130660543	-0.4321785347873626	-1.895545538460593	0.008706985207336985	-4.980541145206175	-4.980541145206599	0.02990239667407053	-0.01171683976926492	-0.574806348127305	-0.5445331107692631	-2.455933845108993e-08	-6.469272890308394e-08	2.105749548518385e-07	1.625157795270189e-08	-4.728531288379116e-08	2.039167129021356e-07	-4.980346593248948e-08
1.08	-0.7193316639552537	-0.123238100546665	0.5693507150362079	2.073643673999682	-0.2882294401988452	0.1671974620341899	-0.4363238996849442	1.278768771509728	1.278768771509807	-0.1744864355493165	0.1745204677876496	0.1256225649407037	-0.01464409261438733	0.1550364452809426	0.01685081810910937	0.1451014392541728	-0.5279061399313851	-0.03665240976707713	-0.1491511123799165	-0.0002595921748513057	-0.3924805104573558	-0.3924805104573896	3.607222173283888e-05	4.130290224646437e-06	-0.04199386722462192	-0.04526224558135476	-0.4830547495292876	0.006406354395192234	-0.01441458298468513	-0.229703334712287	0.085289926408279	0.02428565644183229	0.377288088958953	-19.3126847508657	-6.935520288553688	0.4403155826980969	12.5477936532436	-738.0825059728203	-37.5166454895968	-0.04509839188309809	2.114362429480417	0.2257581387728452	1.823536270163015	-6.780998374116934	-0.444347473574558	-1.85257918143499	-0.01160005033877882	-4.965770706318049	-4.965770706317249	-0.03466249474034078	0.01080879193547058	-0.5904130042761224	-0.5608432981352048	-2.756991684147219e-08	-7.418282070697436e-08	2.351285246557693e-07	1.715663501845301e-08	-5.276656373656344e-08	2.260828171543802e-07	-5.590022992569724e-08
